<svg xmlns="http://www.w3.org/2000/svg" width="2500" height="917" fill="none" viewBox="0 0 2500 917">
  <path fill="url(#a)" d="m0 339.762 111.317 188.311 44.527-42.671L34.323 304.511 0 339.762Z"/>
  <path fill="#0071B9" d="m1656.77 191.339-4.64 25.046 52.88-17.625-6.49-30.612-41.75 23.191Z"/>
  <path fill="url(#b)" d="m1345.08 21.58-171.61 196.66 50.09-13.914L1386.83.244l-41.75 21.336Z"/>
  <path fill="#1D2C5E" d="m2264.38 290.596 41.74-22.263-12.06 105.751-29.68-83.488Zm-262.52 67.718 38.03 8.349 47.31-23.191-41.75-15.77-43.59 30.612Z"/>
  <path fill="url(#c)" d="m710.575 246.997 5.566 121.522 52.876-20.409-15.77-124.304-42.672 23.191Z"/>
  <path fill="url(#d)" d="m2042.67 209.891-41.74 23.192.93 125.231 42.67-21.335 12.98-61.225-14.84-65.863Z"/>
  <path fill="#312370" d="m2037.11 366.663-46.39 411.874 74.22-14.842 13.91-419.295-41.74 22.263Z"/>
  <path fill="#21386E" d="m2127.09 798.018 1.85 55.658 141.93 45.455 42.67-22.264-140.07-108.534-141-12.059-41.75 22.263 136.37 19.481Zm-526.9-98.331 34.32-18.552 23.19 40.816 32.47-17.625 6.49 53.803 206.87 37.106 40.81-23.191-284.79-173.47-202.22 34.323-38.96 38.033 181.82 28.757Z"/>
  <path fill="url(#e)" d="m1534.32 193.194-41.74 23.191-74.21 454.545 41.74-22.263 71.43-255.102 2.78-200.371Z"/>
  <path fill="#1D2C5E" d="m1204.08 254.418-33.39 17.626 2.78 11.131 78.85-50.092-34.32-37.106-44.53 22.263 30.61 36.178Z"/>
  <path fill="#21386E" d="M1294.06 791.524 957.328 624.548l41.744-32.467 336.738 176.252-41.75 23.191Z"/>
  <path fill="#1D2C5E" d="m988.868 170.003-51.02 96.475 53.803-15.77 38.959-103.896-41.742 23.191Z"/>
  <path fill="url(#f)" d="m525.046 569.817-42.671 29.685s9.276 48.237 21.336 81.633c12.059 33.395 39.888 60.296 39.888 60.296 18.553 17.626 39.889 30.613 64.935 38.034 47.31 13.914 101.113 4.638 147.496-25.047 12.059-7.421 28.757-19.48 38.961-29.684-45.455 27.829-269.945-154.917-269.945-154.917Z"/>
  <path fill="#1D2C5E" d="m756.03 359.242 38.961 433.21 161.41-23.191 42.671-22.264-199.443-413.729-40.816 13.915-42.672 21.336 39.889-9.277Z"/>
  <path fill="url(#g)" d="m153.061 509.52 179.963 407.236 170.687-54.731 41.744-27.829-354.36-371.058-44.527 26.902-35.251 38.033 41.744-18.553Z"/>
  <path fill="#1D2C5E" d="m1933.21 701.543 2.78 20.408c14.84-1.855 29.69-3.711 43.6-8.349 15.77-5.566 49.17-20.408 61.23-31.54-5.57 1.855-83.49 22.264-107.61 19.481m-603.9-103.896 6.5 32.467c34.32-5.566 64-17.625 93.69-35.25 18.55-11.132 38.03-26.902 44.53-31.54-4.64 2.783-144.72 34.323-144.72 34.323Z"/>
  <path fill="#FFCB05" d="m379.861 877.925-12.987-29.685-170.687-380.334-3.71-7.421-7.421 3.711-5.566 2.783-30.612 14.842c-4.639-7.421-12.06-20.408-16.698-28.757L63.534 337.109 45.91 306.496l29.685-18.553c27.829-17.625 59.369-34.322 94.619-49.165 68.646-28.757 138.219-44.527 202.227-44.527 21.335 0 41.744 1.856 60.296 4.639 31.54 3.71 61.225 13.914 85.344 30.612 36.178 20.408 64.935 51.948 80.705 89.054 12.987 30.612 15.77 66.79 7.421 103.896l-4.638 22.263 18.553-12.987c12.059-9.276 25.046-16.697 38.961-22.263 24.118-10.204 49.165-15.77 74.211-15.77 24.119 0 46.382 4.638 66.79 13.914l12.987 5.566-.927-14.842-5.566-62.152-.928-10.204-9.276 2.783-28.757 7.421-4.638-105.752 211.502-67.718-1.855 82.561 15.77 3.71 46.385-88.126L1173 283.305l5.56 5.566 5.57-5.566c18.55-17.625 41.74-32.467 66.79-42.671l10.2-4.639-7.42-9.276-25.05-30.612 158.63-182.746 83.49 124.304-127.09 68.646-27.83 14.842 32.47.928c60.3.927 114.1 26.901 150.28 71.428l12.99 16.698 8.35 10.204-13.92 14.842-9.28 10.204-31.54 34.323-5.56 6.494 6.49 5.566 29.69 26.901 11.13 10.204 2.78-14.842 11.13-70.501 2.79-18.553 2.78-18.553 16.7-104.823h157.7l.92-7.422 2.79-17.625h137.29l33.39 209.648 1.86 13.914 11.13-8.348c13.91-10.205 28.76-17.626 44.53-24.119 21.33-8.349 42.67-12.06 64.93-12.06 25.98 0 51.02 5.566 72.36 17.626.93 0 .93.927 2.78 1.855l10.2 3.711.93-11.132 2.79-23.191.92-7.421-7.42-1.856-27.83-6.493-.92-109.462 212.43 46.382 15.77 78.85h16.69l16.7-67.718 177.18 42.671-181.82 546.382-128.94-40.816-.93-50.093v-7.421l-7.42-.927-128.94-18.553 7.42-65.863 1.86-15.77-13.92 7.421c-6.49 3.711-12.99 6.494-19.48 8.349-21.34 8.349-42.67 12.059-64.01 12.059-6.49 0-12.06 0-18.55-.927l-11.13-.928 1.85 11.132 9.28 57.514-188.31-33.395-10.21-85.344-2.78-27.829-12.99 24.119-21.33 41.744-39.89-73.284-12.06-22.264-3.71 25.047-8.35 56.586-165.12-25.974 12.99-77.922 2.78-17.625-15.77 9.276c-26.9 15.77-58.44 28.757-94.62 37.106-12.99 2.783-25.97 5.566-39.89 6.493l-7.42.928v155.844l-324.67-160.482-12.064-5.566v151.206l-145.64 21.336-6.494-65.863-1.855-17.625-12.987 12.059c-19.481 18.553-40.817 33.395-64.008 43.599-24.118 10.204-49.165 15.77-73.283 15.77-25.047 0-48.238-5.565-69.574-14.842-38.961-18.553-67.718-52.876-79.777-96.475-5.566-20.408-7.421-41.744-4.638-64.007l2.783-23.191-16.698 16.697c-12.059 11.132-25.046 22.264-38.961 32.468l-4.638 3.71 1.855 5.566 49.165 187.384 8.349 33.395-32.468 10.204-91.836 29.685-31.54 8.349Zm40.816-503.711c-4.638 0-9.276 0-14.842.928l-6.494.928-9.276 1.855 2.783 9.276 1.855 5.566 25.974 86.271 2.783 8.349 3.711 12.059 9.276-8.349 6.494-5.565c25.974-23.192 34.322-46.383 28.757-76.067-3.711-17.625-16.698-25.974-25.047-29.685-5.566-3.71-15.77-5.566-25.974-5.566Zm706.863 2.783-16.7 15.77-43.6 41.744-9.27 9.277 12.06 4.638 46.38 17.625 13.91 5.566-2.78-14.842c-3.71-19.481-4.64-38.961-2.78-57.514l2.78-22.264Zm189.24-48.237c-17.62 0-35.25 7.421-47.31 21.336-18.55 20.408-22.26 51.02-9.28 75.139l3.72 6.493 5.56 10.204 8.35-9.276 5.57-5.566 64-72.356 4.64-5.566 8.35-9.277-11.13-4.638-7.42-2.783c-9.28-1.855-16.7-3.71-25.05-3.71Z"/>
  <path fill="#7D7F68" d="m1413.73 436.237-1.86 1.855c.93 0 1.86-.928 1.86-1.855Zm55.66-50.093 31.54-34.323-11.13 11.132v-.928l-9.28 10.204-31.54 33.395 29.68 26.902 5.57-33.395 14.84 12.987-29.68-25.974Z"/>
  <path fill="#7D7F68" d="m1469.39 386.144 29.68 25.974 11.13-70.501-9.27 10.204-31.54 34.323Z"/>
  <path fill="#C7A008" d="M1249.54 470.559c2.78 2.783 0 .928 2.78 2.783l19.48-13.914c-2.78-1.856-5.57-4.639-8.35-6.494-27.83-25.974-20.41-83.488-2.78-115.028-48.24 38.961-45.46 98.331-11.13 132.653Z"/>
  <path fill="#C7A008" d="M1484.23 503.027c-32.47 26.902-68.65 43.599-116.88 55.659-10.21 2.782-21.34 4.638-30.62 4.638-76.99 7.421-141-27.83-165.12-84.416-2.78-6.493-5.56-13.915-7.42-21.336-11.13-48.237-1.85-90.909 22.27-125.232 2.78-3.71 4.63-6.493 7.42-9.276-.93.928-2.79 1.855-3.71 2.783-9.28 8.349-17.63 16.698-24.12 26.902-24.12 33.395-33.4 76.994-22.27 125.231 1.86 7.422 3.72 14.843 7.43 21.336 24.11 57.514 89.05 92.765 165.12 85.344 10.2-.928 20.4-2.783 31.54-5.566 48.23-12.06 85.34-28.757 116.88-55.659 7.42-6.493 15.77-13.915 23.19-21.336l-.93-.927c-1.85.927-2.78.927-2.78 1.855Zm-540.816-145.64 85.346-120.594-3.71-2.783-82.564 115.956.928 7.421Zm566.786-15.77-11.13 70.501-14.84-12.987-5.57 33.395-29.68-26.902 31.54-33.395 9.28-10.204v.928l11.13-11.132 9.27-10.204Zm-105.75-198.516 29.69-12.987-54.73-70.5-17.63 25.973 42.67 57.514ZM573.284 317.498c-139.147-168.831-388.683-77.922-477.737.928l3.71 6.493c20.409-12.059 42.673-22.263 64.936-32.467 89.054-38.034 174.397-49.165 242.115-37.106 24.119 2.783 49.165 10.204 71.429 25.046 30.612 17.626 53.803 41.744 67.718 73.284 24.118 55.659 2.783 129.87-53.804 191.095 71.429-65.863 120.594-128.943 81.633-227.273Zm282.931 196.661c-.927-2.783-.927-6.494-1.855-9.277-7.421-27.829-24.119-50.093-46.382-64.935-35.251-24.119-85.343-28.757-134.509-8.349-25.974 11.132-48.237 28.757-66.79 49.165 13.915-12.059 29.685-21.335 46.382-28.756 49.165-21.336 99.258-15.77 134.509 8.348 22.263 14.843 38.961 37.106 46.382 64.935.927 2.783 1.855 6.494 1.855 9.277 1.855 11.132 2.783 21.336 2.783 32.467-.928 32.468-12.987 64.935-32.468 92.765-2.782 4.638-6.493 8.349-10.204 12.987 11.132-10.204 21.336-20.408 29.685-32.468 20.408-27.829 31.54-60.297 33.395-92.764 0-11.132-.927-22.264-2.783-33.395Z"/>
  <path fill="#C7A008" d="M719.852 473.342s20.408-20.408 19.48-20.408c-25.046-.928-36.178 23.191-37.106 25.047 5.566-2.783 11.132-3.711 17.626-4.639Zm47.309 28.757c.928 3.711 1.856 6.494 1.856 10.204 0 5.566-.928 10.204-3.711 14.843 3.711-1.856 33.395-16.698 22.264-46.383.927 1.856-21.336 21.336-20.409 21.336Zm-115.027 17.625c0-12.059 21.335-42.671 27.829-52.875-33.395 21.336-48.238 50.093-48.238 72.356 0 38.961 34.323 70.501 75.14 70.501 19.48 0 54.731-10.204 77.922-47.31-12.06 8.349-42.672 26.902-59.37 26.902-40.816 0-73.283-30.612-73.283-69.574m286.642 35.251.927 156.772 25.047 1.855-5.566-179.035-20.408 20.408ZM795.918 255.346v13.915l118.739-35.251 8.349 151.206 20.408-27.829-4.639-151.206-142.857 49.165Zm357.142 53.803-110.39-102.04-13.91 29.684 98.33 91.837 25.97-19.481Zm-16.7 190.167-130.79-43.599-18.557 20.408 129.867 51.948c14.85 27.83 37.11 51.948 64.94 68.646 26.9 16.698 58.44 26.902 90.91 29.685v64.007l20.41 10.204 6.49-96.475-163.27-104.824Zm209.65-17.625c32.47-7.421 50.09-24.119 66.79-42.672-12.06 10.205-71.43 23.192-81.63 25.974l-19.48 21.336c8.35 0 23.19-1.855 34.32-4.638m-58.44-222.634c-59.37 7.421-89.98 57.514-94.62 63.079 22.26-18.552 49.16-32.467 79.78-38.961 73.28-17.625 137.29 4.639 177.18 53.804l25.04-20.408c-39.89-48.238-114.1-75.14-187.38-57.514m198.52 242.115c7.42-5.566 19.48-12.06 26.9-19.481l-78.85-70.501c-6.5 7.421-11.13 19.481-18.56 25.047l70.51 64.935Zm405.38 189.239c-82.56-68.646-77.93-214.286-37.11-260.668l-36.18-229.128-79.78 10.204-3.71 20.408h60.3l32.47 207.792c-40.82 46.383-60.3 108.535-47.31 166.049 10.2 44.527 38.03 79.777 76.99 100.185 3.71 1.856 8.35 3.711 12.06 5.566l.93 2.783 24.12 3.711c-.93.927 1.85-25.047-2.78-26.902ZM1573.28 234.01l-3.71 20.408h90.91l26.9 147.496 20.41-20.408-21.33-155.845-113.18 8.349Zm155.85 285.714-29.69 76.067 7.42 20.408 41.75-115.955-19.48 19.48Zm-87.2-47.309-20.41 20.408-22.26 137.291 21.33 7.421 21.34-165.12Zm409.09-44.527c12.06 8.349 22.26 19.48 29.69 32.467 6.49 10.204 10.2 20.408 13.91 33.395 10.2 41.744-1.86 86.271-27.83 121.522-2.78 3.71-5.57 7.421-8.35 10.204 10.21-9.277 140.08-104.824 13.92-230.056-139.15-45.454-192.03 44.527-196.66 51.021 14.84-12.06 31.54-23.191 50.09-29.685 46.38-18.553 92.76-12.059 125.23 11.132"/>
  <path fill="#C7A008" d="M1981.45 437.164c0 .928 20.41-20.408 20.41-20.408-25.05.928-37.11 12.987-35.26 18.553-1.85 1.855-2.78 4.638-3.71 6.493 4.64-2.783 14.85-4.638 18.56-4.638m46.38 31.54c.93 3.711.93 6.494.93 10.204 0 4.638-1.86 9.277-3.71 12.987 3.71-1.855 33.39-11.132 22.26-44.527.93 1.856-20.41 21.336-19.48 21.336Zm-65.86 104.824c27.83.927 59.37-15.77 81.63-46.382-56.59 12.059-116.88-83.488-111.32-92.765-21.33 15.77-40.81 45.455-41.74 66.791-1.86 38.961 30.61 70.501 71.43 72.356Zm312.61 247.681 12.99 8.349 163.26-489.796-122.44-27.83-.93 28.757 98.33 21.336-151.21 459.184Zm-193.87-562.152.92 27.829 129.87 25.974 50.1 237.477 20.4-20.408-48.23-240.26-153.06-30.612Zm100.18 270.872-36.18 202.226 20.41 6.493 36.18-229.128-20.41 20.409ZM495.362 806.366l-60.297-220.779-22.263 15.77 56.586 210.575 25.974-5.566Zm-15.77-331.168c-13.915 14.842-45.455 43.599-63.08 54.731l-11.132-34.323-23.191-76.067-14.842-51.02-14.842 18.552 14.842 51.021 23.191 75.139 11.132 34.323c25.046-13.915 60.297-43.599 77.922-72.356"/>
  <path fill="#7D7F68" d="M1340.45 344.4c-19.49-7.421-46.39-5.566-61.23 11.132-3.71 3.71-10.2 12.987-12.06 17.625 13.92-11.132 39.89-13.915 55.66-7.421l17.63-21.336Zm-877.556 68.645c-1.855-11.131-12.987-20.408-18.553-23.191-9.276-4.638-26.901-5.565-38.961-2.783 1.856 7.422 4.639 16.698 5.566 20.409 4.638.927 12.987 1.855 17.625 3.71 5.566 2.783 14.843 8.349 16.698 20.408 2.783 14.843 1.855 29.685-4.638 40.817 17.625-16.698 25.974-35.251 22.263-59.37"/>
  <path fill="#3C5AA6" d="M493.033 412.248c-8.348-44.527-66.79-69.574-125.231-38.034l14.842 51.021 23.191 76.067 11.132 34.322c43.599-26.901 87.198-61.224 76.066-123.376Zm-57.513 69.573c-6.494-20.408-20.409-64.935-20.409-64.935s-2.783-9.276-6.493-20.408c12.059-1.856 24.119-.928 33.395 3.71 5.566 2.783 14.842 8.349 16.698 20.408 5.565 24.119-2.783 42.672-23.191 61.225Z"/>
  <path fill="#3567B0" d="M1370.58 341.747c-32.46-29.685-82.56-27.83-112.24 4.638-29.68 32.467-27.83 82.56 4.64 112.245 2.78 2.783 5.56 4.638 8.35 6.493l104.82-118.738c-1.85-.928-3.71-2.783-5.57-4.638Zm-98.33 83.488c-10.2-18.553-8.34-42.672 7.43-59.37 14.84-15.769 37.1-20.408 56.58-12.987l-64.01 72.357Z"/>
  <path fill="#1E2D5F" d="m1510.2 328.63-57.51 55.659 54.73 49.165 2.78-104.824Z"/>
  <path fill="#3466AF" d="M2047.31 448.296c.93 3.71.93 7.421.93 11.132-.93 22.263-21.34 38.961-46.38 38.033-25.05-.928-44.53-19.48-43.6-41.744.92-20.408 19.48-37.106 41.74-38.033-4.64-.928-9.28-1.856-13.91-1.856-41.75-1.855-75.14 27.83-77 64.008-1.85 38.961 29.69 71.428 70.5 72.356 41.75 1.855 75.14-27.829 77-66.79 2.78-12.987-1.86-25.974-9.28-37.106"/>
  <path fill="url(#h)" d="M789.425 492.823c0 22.263-20.408 39.889-44.527 39.889-25.046 0-44.527-17.626-44.527-39.889 0-20.408 17.625-38.034 40.816-39.889-4.638-.928-9.276-.927-13.914-.927-41.744 0-74.212 30.612-74.212 67.717 0 38.962 32.468 69.574 73.284 69.574 41.744 0 74.212-30.612 74.212-69.574 0-13.914-4.639-25.974-12.06-37.105 0 2.783.928 6.493.928 10.204"/>
  <path fill="url(#i)" d="m2305.65 268.463-18.55 76.067-16.7-84.416-228.2-50.093 1.85 127.088 34.33 7.421-2.79 23.191s-.92 0-.92-.928c-42.68-22.263-95.55-25.046-144.72-5.566-16.69 6.494-32.46 14.843-46.38 25.047l-34.32-217.069h-151.21l-3.71 25.046h-159.55l-18.56 111.318-12.98-16.698c-38.96-47.31-94.62-73.284-156.77-75.139l135.43-72.356L1387.28.374l-170.68 196.66 29.68 36.178c-26.9 11.132-50.09 25.974-69.57 44.527l-146.57-129.87-51.021 97.403 1.855-94.62-229.128 73.284 6.494 122.449 38.961-10.204 5.565 62.152c-44.526-20.408-98.33-19.481-147.495 1.855-14.842 6.494-28.757 13.915-40.816 23.191 8.349-38.033 6.493-75.139-8.349-108.534-16.698-38.961-47.31-72.356-83.488-92.764-25.974-17.626-56.586-27.83-89.054-31.54-78.85-13.915-174.397 0-268.089 39.888-34.323 14.843-66.79 31.54-95.547 50.093L33.85 303.713l22.263 37.106 68.646 116.883 21.336 35.251L183.2 474.4l5.566-2.783 170.687 380.334 16.697 36.178 38.034-12.059 91.836-29.685 40.817-12.987-10.204-40.816-49.165-187.384a336.051 336.051 0 0 0 38.961-33.396c-2.783 22.264-.928 45.455 4.638 66.791 12.987 45.454 42.671 81.632 84.415 101.113 44.527 21.336 99.258 21.336 149.351 0 25.046-11.132 48.238-25.974 66.79-45.455l6.494 75.14 161.41-24.119V600.559l336.733 166.976V607.053c13.92-.928 26.9-3.711 40.82-6.494 37.1-9.276 68.64-21.335 97.4-38.033l-13.91 86.271 181.81 28.757 10.21-65.863 47.31 88.126 28.75-55.658 10.21 91.836 205.94 36.179-11.14-69.574c27.83 2.783 57.52-.927 86.27-11.132 6.5-2.782 13.92-5.565 19.49-9.276l-8.35 74.212 137.29 19.48.93 56.586 142.85 44.527 186.46-561.224-192.95-47.31Zm-805.2 83.488 9.28-10.204-11.13 70.501-29.69-26.902 31.54-33.395ZM1379.86 62.526l50.09 67.718-142.85 70.501-10.21-14.842c0 .927 102.97-123.377 102.97-123.377ZM434.592 585.717l56.586 218.924-91.837 29.685L210.102 411.32c-10.204 5.566-29.685 14.842-46.382 23.191L95.074 318.556c26.902-17.626 57.514-32.468 89.054-46.383 89.054-38.033 174.397-49.165 242.115-37.105 24.119 2.783 49.165 10.204 71.429 25.046 30.612 17.625 53.803 41.744 67.718 73.284 33.395 76.067-21.336 185.529-130.798 252.319Zm423.933-38.961c-.928 32.468-12.987 64.935-33.395 92.764-19.481 26.902-45.455 48.238-76.995 62.153-79.777 34.322-159.554 0-180.89-76.067-20.408-73.284 27.829-160.483 104.824-193.878 49.165-21.336 99.258-15.77 134.508 8.349 22.263 14.842 38.961 37.106 46.382 64.935.928 2.783 1.855 6.494 1.855 9.276 3.711 11.132 3.711 22.264 3.711 32.468Zm435.065 154.917L958.711 534.697l.927 175.324-86.271 12.06-6.493-72.357c26.902-45.454 36.178-100.185 22.263-149.35-7.421-26.902-21.335-51.021-40.816-69.573l-12.059-147.496-38.961 10.204-1.856-37.105 139.147-41.744 8.349 142.857 102.039-143.785 101.11 95.547-140.07 147.496 131.73 51.948c14.84 27.829 37.1 51.02 64.93 68.645 26.9 16.698 58.44 26.902 90.91 29.685v94.62ZM1120.12 458.63l-46.38-17.625 43.6-41.744c-2.79 19.48-1.86 38.961 2.78 59.369Zm363.64 44.527c-32.47 26.901-68.65 43.599-116.89 55.658-10.2 2.783-21.33 4.639-30.61 4.639-76.99 7.421-141-27.83-165.12-84.416-2.78-6.493-5.56-13.915-7.42-21.336-11.13-48.237-1.86-90.909 22.26-125.232 6.5-10.204 14.85-18.553 24.12-26.901 22.27-20.409 51.02-34.323 83.49-42.672 73.28-17.625 137.29 4.638 177.18 52.876l-139.15 148.423c9.28 1.855 24.12-.928 35.25-3.711 33.4-8.349 51.95-25.974 67.72-44.527l55.66 50.093 16.7 14.842c-7.42 8.349-14.84 15.77-23.19 22.264Zm295.92 197.588-30.62-200.371-42.67 110.389-64.01-138.218h-.92l-25.05 160.482-106.68-18.553 14.84-89.054c3.71-3.71 8.35-7.421 12.06-12.059l34.33-35.251-33.4-30.612 36.18-213.358h107.6l26.91 147.495 30.61-170.686h76.99l32.47 207.792c-40.82 46.382-60.3 108.534-47.31 166.048 10.21 44.527 38.03 79.778 77 101.114 3.71 1.855 8.34 3.71 12.05 5.565l3.72 26.902-114.1-17.625Zm266.23-65.863c-12.06 8.349-25.05 15.77-38.96 20.408-27.83 10.204-54.73 12.987-79.78 7.422-16.7-3.711-32.47-10.205-46.38-19.481-21.34-15.77-37.11-38.033-44.53-66.79-8.35-34.323-.93-71.429 17.63-103.896 9.27-15.77 21.33-30.613 35.25-43.6 15.77-13.914 34.32-25.974 53.8-33.395 47.31-17.625 93.69-11.132 126.16 12.059 12.06 8.349 22.26 19.481 29.68 32.468 5.57 10.204 10.21 21.336 12.99 33.395 10.21 41.744-1.85 86.271-27.83 121.522-8.35 15.77-22.26 28.756-38.03 39.888Zm241.19 189.24-78.85-23.192-6.5-291.28-39.89 224.49-86.27-13.915 6.5-64.935c56.58-47.309 86.27-122.449 69.57-191.094-7.42-29.685-22.26-56.587-44.53-76.067l7.42-76.067-32.46-8.349.92-40.816 148.43 29.685 50.09 236.549 51.02-212.431 113.17 25.047-158.62 482.375Z"/>
  <path fill="#000" d="M2393.32 791.524h3.71c4.64 0 8.35-1.855 8.35-6.493 0-2.783-2.78-6.494-8.35-6.494h-3.71v12.987Zm0 19.481h-5.56v-35.251c2.78-.927 5.56-.927 10.2-.927 5.57 0 9.28.927 11.13 2.782 1.86 1.856 3.71 3.711 3.71 7.422 0 4.638-2.78 7.421-6.49 8.348 2.78.928 5.56 3.711 5.56 8.349.93 5.566 1.86 7.421 1.86 8.349h-5.57c-.92-.928-1.85-4.638-2.78-9.276-.93-4.639-2.78-6.494-7.42-6.494h-4.64v16.698Zm6.49-45.455c-13.91 0-25.04 12.059-25.04 26.902 0 14.842 11.13 26.901 25.97 26.901 13.92 0 25.05-12.059 25.05-26.901-.93-14.843-12.06-26.902-25.98-26.902Zm0-4.638c17.63 0 30.62 13.915 30.62 31.54s-13.92 31.54-31.54 31.54c-17.63 0-31.54-13.915-31.54-31.54.92-17.625 14.84-31.54 32.46-31.54Z"/>
  <defs>
    <linearGradient id="a" x1="123.377" x2="30.445" y1="496.756" y2="323.584" gradientUnits="userSpaceOnUse">
      <stop stop-color="#0070B6"/>
      <stop offset="1" stop-color="#1D2C5E"/>
    </linearGradient>
    <linearGradient id="b" x1="1256.73" x2="1374.68" y1="142.971" y2="16.589" gradientUnits="userSpaceOnUse">
      <stop stop-color="#0070B6"/>
      <stop offset="1" stop-color="#1D2C5E"/>
    </linearGradient>
    <linearGradient id="c" x1="742.134" x2="728.071" y1="353.676" y2="235.513" gradientUnits="userSpaceOnUse">
      <stop stop-color="#0070B6"/>
      <stop offset="1" stop-color="#1D2C5E"/>
    </linearGradient>
    <linearGradient id="d" x1="2030.58" x2="2024.96" y1="330.93" y2="224.27" gradientUnits="userSpaceOnUse">
      <stop stop-color="#125D9E"/>
      <stop offset="1" stop-color="#1D2C5E"/>
    </linearGradient>
    <linearGradient id="e" x1="1636.93" x2="1513.14" y1="177.192" y2="374.112" gradientUnits="userSpaceOnUse">
      <stop stop-color="#125D9E"/>
      <stop offset="1" stop-color="#1D2C5E"/>
    </linearGradient>
    <linearGradient id="f" x1="541.466" x2="625.863" y1="493.036" y2="659.019" gradientUnits="userSpaceOnUse">
      <stop stop-color="#105FA1"/>
      <stop offset="1" stop-color="#1D2C5E"/>
    </linearGradient>
    <linearGradient id="g" x1="223.015" x2="320.696" y1="436.385" y2="662.823" gradientUnits="userSpaceOnUse">
      <stop stop-color="#105FA1"/>
      <stop offset="1" stop-color="#1D2C5E"/>
    </linearGradient>
    <linearGradient id="h" x1="651.716" x2="799.481" y1="520.504" y2="520.504" gradientUnits="userSpaceOnUse">
      <stop stop-color="#3C5AA6"/>
      <stop offset=".933" stop-color="#2B73B9"/>
      <stop offset="1" stop-color="#2A75BB"/>
    </linearGradient>
    <linearGradient id="i" x1="34.564" x2="2499.71" y1="444.446" y2="444.446" gradientUnits="userSpaceOnUse">
      <stop stop-color="#3C5AA6"/>
      <stop offset=".933" stop-color="#2B73B9"/>
      <stop offset="1" stop-color="#2A75BB"/>
    </linearGradient>
  </defs>
</svg>
